<?xml version="1.0" encoding="UTF-8"?>
<svg version="1.1" xmlns="http://www.w3.org/2000/svg" width="740" height="740">
<path d="M0 0 C4.23864817 0.32329402 4.23864817 0.32329402 8.42802429 -0.23152161 C11.44568194 -0.75595683 13.57575735 -0.37900641 16.56762695 0.23950195 C22.90518017 1.39049269 28.98789795 1.5902079 35.41601562 1.546875 C36.55730423 1.54641678 37.69859283 1.54595856 38.87446594 1.54548645 C41.27366179 1.54248586 43.67285607 1.53466614 46.07202148 1.5222168 C49.69001399 1.5040408 53.30774793 1.50170715 56.92578125 1.50195312 C68.01751383 1.4844989 79.03274974 1.29250538 90.09790039 0.5324707 C97.28006761 0.13774811 104.46407393 0.24940173 111.65429688 0.31640625 C114.60481399 0.34324656 117.55526519 0.36304579 120.50585938 0.37890625 C121.78541504 0.39050781 123.0649707 0.40210937 124.38330078 0.4140625 C128.00939147 0.31693941 131.44472228 -0.1536683 135.02929688 -0.68359375 C162.55382168 -1.40658349 162.55382168 -1.40658349 172.21679688 6.31640625 C176.83411348 10.79295101 180.36439829 16.06107997 184.02929688 21.31640625 C188.578556 27.54999315 193.12070794 33.68730834 198.42382812 39.3046875 C200.21884548 41.5539185 201.53780908 43.96673832 202.93334961 46.47631836 C204.74014559 49.50991634 206.93630435 52.20150988 209.15429688 54.94140625 C210.1339497 56.17148797 211.1131055 57.40196568 212.09179688 58.6328125 C212.58292969 59.24785645 213.0740625 59.86290039 213.58007812 60.49658203 C219.10195166 67.43055193 224.47285691 74.42709557 229.46679688 81.75390625 C233.91384955 88.26006958 238.73938095 94.40949601 243.64746094 100.57128906 C250.20313944 108.85043923 256.68525146 117.22715482 262.81835938 125.82421875 C266.38807321 130.81612933 270.06849186 135.62661871 274.02929688 140.31640625 C279.5264955 146.82847232 284.89495357 153.50396242 289.09179688 160.94140625 C290.93750982 163.69762728 290.93750982 163.69762728 294.77929688 164.19140625 C295.85179687 164.23265625 296.92429687 164.27390625 298.02929688 164.31640625 C298.11179687 163.69765625 298.19429688 163.07890625 298.27929688 162.44140625 C299.02929688 160.31640625 299.02929688 160.31640625 300.90429688 159.31640625 C301.60554688 158.98640625 302.30679687 158.65640625 303.02929688 158.31640625 C304.04171372 156.99247653 305.04369077 155.66041458 306.02929688 154.31640625 C306.68929688 154.31640625 307.34929687 154.31640625 308.02929688 154.31640625 C308.12339844 153.71957031 308.2175 153.12273437 308.31445312 152.5078125 C309.19707688 149.80206425 310.24474765 149.00203753 312.46679688 147.25390625 C320.71014046 140.33775573 327.38586961 132.19970644 333.43554688 123.3359375 C333.96148437 122.66949219 334.48742187 122.00304687 335.02929688 121.31640625 C335.68929688 121.31640625 336.34929687 121.31640625 337.02929688 121.31640625 C337.25617188 120.78015625 337.48304688 120.24390625 337.71679688 119.69140625 C339.99737425 115.5646472 343.08742939 112.24293388 346.42773438 108.95703125 C348.92963562 106.41756392 351.13057964 103.79723551 353.34179688 101.00390625 C356.75412914 96.7739769 360.3323744 92.94351876 364.24023438 89.17578125 C366.02103844 87.32498925 367.45602529 85.43376237 368.90429688 83.31640625 C369.60554688 82.32640625 370.30679687 81.33640625 371.02929688 80.31640625 C371.68929688 80.31640625 372.34929687 80.31640625 373.02929688 80.31640625 C373.29355469 79.73503906 373.5578125 79.15367187 373.83007812 78.5546875 C376.65734314 73.27774009 381.29561467 68.99274738 385.52929688 64.81640625 C389.24130895 61.1535599 392.63775353 57.27533185 396.02929688 53.31640625 C396.97173488 52.22632872 397.91446669 51.13650518 398.85742188 50.046875 C408.63301435 38.85791868 408.63301435 38.85791868 417.61914062 27.04296875 C418.08449219 26.47320312 418.54984375 25.9034375 419.02929688 25.31640625 C419.68929688 25.31640625 420.34929687 25.31640625 421.02929688 25.31640625 C421.68929688 23.66640625 422.34929687 22.01640625 423.02929688 20.31640625 C423.68929688 20.31640625 424.34929687 20.31640625 425.02929688 20.31640625 C425.35414063 19.52943359 425.35414063 19.52943359 425.68554688 18.7265625 C429.48646255 11.90922246 436.42231528 3.52310145 444.02929688 1.00390625 C448.72550369 0.07523513 453.45018852 0.14147696 458.22070312 0.28125 C460.62122857 0.3112983 462.73425131 0.14441993 465.09179688 -0.24609375 C469.209749 -0.70364399 472.74678618 -0.4039406 476.83007812 0.16015625 C479.54694041 0.29284794 481.86167406 0.16022995 484.54882812 -0.1328125 C492.85623047 -0.96165943 501.18742944 -0.94371195 509.52880859 -0.97875977 C511.45661702 -0.99038096 513.38439085 -1.01098855 515.31201172 -1.0402832 C518.1216377 -1.08283889 520.93032682 -1.0990985 523.74023438 -1.109375 C525.02781143 -1.13563713 525.02781143 -1.13563713 526.34140015 -1.16242981 C530.5426681 -1.14716117 532.50566436 -1.02807572 536.10986328 1.34301758 C537.05998291 2.31984497 537.05998291 2.31984497 538.02929688 3.31640625 C537.36929688 3.31640625 536.70929687 3.31640625 536.02929688 3.31640625 C536.02929688 4.63640625 536.02929688 5.95640625 536.02929688 7.31640625 C535.36929688 7.31640625 534.70929687 7.31640625 534.02929688 7.31640625 C533.98804688 7.91453125 533.94679688 8.51265625 533.90429688 9.12890625 C533.02929688 11.31640625 533.02929688 11.31640625 530.15429688 13.06640625 C527.02929688 14.31640625 527.02929688 14.31640625 524.02929688 14.31640625 C523.69929687 15.30640625 523.36929688 16.29640625 523.02929688 17.31640625 C522.36929688 17.31640625 521.70929687 17.31640625 521.02929688 17.31640625 C520.65611328 18.1671875 520.65611328 18.1671875 520.27539062 19.03515625 C518.83383385 21.67424451 517.13026857 23.60468289 515.09179688 25.81640625 C514.29386719 26.6878125 513.4959375 27.55921875 512.67382812 28.45703125 C511.36478516 29.87242187 511.36478516 29.87242187 510.02929688 31.31640625 C508.58858638 32.87978324 507.14906199 34.44423372 505.71069336 36.00976562 C504.34543104 37.49448549 502.97651775 38.97584566 501.60742188 40.45703125 C499.80657012 42.45433956 498.06229858 44.4541223 496.34960938 46.5234375 C493.5927097 49.84192785 490.59728056 52.82327606 487.47460938 55.796875 C481.28493924 61.80114027 475.42786437 68.40802316 470.77929688 75.69140625 C468.81724001 78.63449155 466.53023182 80.81547131 464.02929688 83.31640625 C462.84650934 84.80372759 461.68103145 86.30491077 460.52929688 87.81640625 C457.89405177 91.26032099 455.13628127 94.28339767 452.02929688 97.31640625 C446.64711342 103.06942916 441.68412518 108.96766113 437.02929688 115.31640625 C434.3250469 118.80346542 431.58794713 121.74725721 428.21679688 124.56640625 C424.397101 127.82625802 421.48366168 131.41493851 418.42773438 135.3828125 C415.46227027 139.00995182 412.26187355 142.36573278 409.02929688 145.75390625 C404.07346203 150.96531842 399.64310178 156.19864297 395.58007812 162.14453125 C394.02929688 164.31640625 394.02929688 164.31640625 392.33398438 165.9296875 C390.71334782 167.35701736 390.71334782 167.35701736 390.84179688 170.25390625 C390.02929688 173.31640625 390.02929688 173.31640625 388.43945312 174.27734375 C387.76785156 174.55835938 387.09625 174.839375 386.40429688 175.12890625 C381.70979872 177.11795753 379.47856294 180.10164431 376.57226562 184.1953125 C375.02929687 186.31640625 375.02929687 186.31640625 373.39257812 187.90625 C371.76634465 189.38520489 371.76634465 189.38520489 371.02929688 192.31640625 C369.40826719 194.02749314 367.73426224 195.68893931 366.02929688 197.31640625 C362.55652802 200.70012975 359.40511513 204.19435147 356.36132812 207.9609375 C355.92175781 208.40824219 355.4821875 208.85554687 355.02929688 209.31640625 C354.36929687 209.31640625 353.70929688 209.31640625 353.02929688 209.31640625 C352.76117188 209.87328125 352.49304688 210.43015625 352.21679688 211.00390625 C351.02929688 213.31640625 351.02929688 213.31640625 349.46679688 215.56640625 C347.56296432 219.2085207 347.37536738 222.23277424 347.02929688 226.31640625 C346.03929687 226.64640625 345.04929687 226.97640625 344.02929688 227.31640625 C343.30743405 235.88660741 350.66674449 242.99474158 355.84179688 249.19140625 C356.59074219 250.05507813 357.3396875 250.91875 358.11132812 251.80859375 C359.98725214 254.26143127 361.04370003 256.40654889 362.02929688 259.31640625 C362.68929688 259.31640625 363.34929687 259.31640625 364.02929688 259.31640625 C365.90265366 261.78167055 367.66507962 264.25850711 369.40429688 266.81640625 C370.49089583 268.38546173 371.57948855 269.95313808 372.66992188 271.51953125 C373.22744141 272.32068359 373.78496094 273.12183594 374.359375 273.94726562 C381.25576951 283.73127328 388.65203634 293.17472923 395.97070312 302.64453125 C396.65003906 303.52625 397.329375 304.40796875 398.02929688 305.31640625 C398.61582031 306.05375 399.20234375 306.79109375 399.80664062 307.55078125 C401.02929688 309.31640625 401.02929688 309.31640625 401.02929688 311.31640625 C401.68929688 311.31640625 402.34929687 311.31640625 403.02929688 311.31640625 C404.22109071 312.95741469 405.33000529 314.65867986 406.40429688 316.37890625 C410.23240488 322.3040293 414.46583356 327.74284481 418.99169922 333.15063477 C421.67864329 336.41060096 423.73843589 339.21831145 425.02929688 343.31640625 C425.68929688 343.31640625 426.34929687 343.31640625 427.02929688 343.31640625 C428.63453026 345.36770638 430.12242191 347.42052861 431.59179688 349.56640625 C432.49560305 350.85887208 433.40057243 352.15052518 434.30664062 353.44140625 C434.76280762 354.09367187 435.21897461 354.7459375 435.68896484 355.41796875 C442.14640715 364.56424769 449.06730597 373.39851517 456.25976562 381.9765625 C458.02929688 384.31640625 458.02929688 384.31640625 458.02929688 386.31640625 C458.68929688 386.31640625 459.34929687 386.31640625 460.02929688 386.31640625 C461.48677683 388.41493548 462.83087368 390.51038471 464.15429688 392.69140625 C468.05480984 398.93615896 472.29680396 404.66823942 477.02929688 410.31640625 C492.02929688 428.51606495 492.02929688 428.51606495 492.02929688 431.31640625 C492.68929688 431.31640625 493.34929687 431.31640625 494.02929688 431.31640625 C495.22070312 433.1171875 495.22070312 433.1171875 496.59179688 435.62890625 C500.13484403 441.73464286 504.47450977 446.94448126 509.02929688 452.31640625 C514.94081856 459.34800573 520.4404424 466.55346955 525.72070312 474.0625 C528.08746905 477.39839851 530.53926029 480.64950893 533.06835938 483.86328125 C534.02929688 485.31640625 534.02929688 485.31640625 534.02929688 487.31640625 C534.68929687 487.31640625 535.34929688 487.31640625 536.02929688 487.31640625 C537.29101562 488.70825195 537.29101562 488.70825195 538.71679688 490.6796875 C539.24789062 491.4113916 539.77898438 492.1430957 540.32617188 492.89697266 C543.87974473 497.94512447 547.36792582 503.03905553 550.81835938 508.15820312 C556.39229616 516.4395843 556.39229616 516.4395843 564.90429688 521.12890625 C565.95617187 521.22171875 565.95617187 521.22171875 567.02929688 521.31640625 C567.11097133 522.73209689 567.16879386 524.1491743 567.21679688 525.56640625 C567.25160156 526.3553125 567.28640625 527.14421875 567.32226562 527.95703125 C566.96508375 530.83353593 565.91177969 532.16217394 564.02929688 534.31640625 C561.09960937 533.828125 558.16992188 533.33984375 555.24023438 532.8515625 C554.180625 532.67496094 553.12101563 532.49835937 552.02929688 532.31640625 C551.0915766 532.14298769 550.15385633 531.96956913 549.1877203 531.79089546 C546.16195351 531.33633523 543.34001882 531.19060996 540.28358459 531.18942261 C539.16110321 531.18660278 538.03862183 531.18378296 536.88212585 531.18087769 C535.66491348 531.18290192 534.44770111 531.18492615 533.19360352 531.18701172 C531.25333282 531.18438324 531.25333282 531.18438324 529.27386475 531.18170166 C525.73406001 531.1771524 522.1942845 531.17890766 518.65447927 531.18208075 C514.93391294 531.18462213 511.21334902 531.18226141 507.49278259 531.18069458 C501.2359879 531.17887603 494.97920501 531.18126882 488.72241211 531.18603516 C481.52440787 531.19145576 474.32643205 531.18972994 467.12842852 531.18420875 C460.92430031 531.17964295 454.72018058 531.17904455 448.51605123 531.18164742 C444.82179802 531.183194 441.12755806 531.1834494 437.43330574 531.18011093 C433.29870096 531.17663577 429.16414356 531.18147805 425.02954102 531.18701172 C423.83054672 531.18498749 422.63155243 531.18296326 421.39622498 531.18087769 C414.01344618 531.19901417 406.71808659 531.54432745 399.36156368 532.11441231 C393.27279574 532.48349867 388.21826197 532.62978531 382.90429688 529.44140625 C378.66216556 525.28199059 375.42883575 520.15692614 372.02929688 515.31640625 C370.27060846 512.8699817 368.49599957 510.43544153 366.71679688 508.00390625 C366.25112305 507.36646484 365.78544922 506.72902344 365.30566406 506.07226562 C362.15750168 501.78696714 358.90787884 497.5975464 355.59179688 493.44140625 C351.55854105 488.38364877 347.78240218 483.19122279 344.09179688 477.87890625 C338.85202615 470.34647057 333.23585723 463.20044208 327.45214844 456.08203125 C321.55096246 448.75921434 315.93382938 441.22129947 310.42382812 433.6015625 C307.15831767 429.10730001 303.84685442 424.64732138 300.52929688 420.19140625 C299.60370972 418.93831665 299.60370972 418.93831665 298.65942383 417.65991211 C295.52392897 413.46034465 292.30399881 409.43872237 288.78710938 405.55078125 C285.95748543 402.42254342 283.55282287 399.33839141 281.40429688 395.69140625 C279.08820871 391.92320887 276.70961244 388.60231364 273.75976562 385.3203125 C269.61399498 380.51945394 265.86989259 375.36262586 262.02929688 370.31640625 C261.37703125 369.4759375 260.72476562 368.63546875 260.05273438 367.76953125 C259.50875 367.063125 258.96476562 366.35671875 258.40429688 365.62890625 C257.93765625 365.02691406 257.47101563 364.42492187 256.99023438 363.8046875 C256.02929688 362.31640625 256.02929688 362.31640625 256.02929688 360.31640625 C255.03929687 359.98640625 254.04929687 359.65640625 253.02929688 359.31640625 C252.38992188 358.32640625 251.75054687 357.33640625 251.09179688 356.31640625 C249.34313114 353.32827509 249.34313114 353.32827509 247.15429688 352.19140625 C243.01167441 352.43508992 240.25107153 355.06393374 237.47460938 357.91015625 C235.61448684 360.0105817 233.81906686 362.15562828 232.02929688 364.31640625 C230.28181996 366.40192862 228.5324685 368.48568531 226.77929688 370.56640625 C226.31338135 371.12021973 225.84746582 371.6740332 225.36743164 372.24462891 C222.08930404 376.12025325 218.72206298 379.89909408 215.27929688 383.62890625 C214.82063232 384.12640381 214.36196777 384.62390137 213.8894043 385.13647461 C212.6032125 386.53025659 211.3162736 387.92334902 210.02929688 389.31640625 C204.99445289 394.72160525 204.99445289 394.72160525 201.09179688 400.94140625 C199.16102535 404.10085056 198.24201175 405.06822671 195.34179688 407.06640625 C189.84404561 410.90157225 186.10025273 416.05602329 182.02929688 421.31640625 C180.55476474 423.21584644 179.07587147 425.11191242 177.59179688 427.00390625 C176.95371094 427.83277344 176.315625 428.66164063 175.65820312 429.515625 C175.12066406 430.10988281 174.583125 430.70414063 174.02929688 431.31640625 C173.36929688 431.31640625 172.70929688 431.31640625 172.02929688 431.31640625 C171.68898438 432.39921875 171.68898438 432.39921875 171.34179688 433.50390625 C169.75920554 436.89517341 167.70809645 438.70639183 165.02929688 441.31640625 C157.39457381 449.40302882 150.1636201 457.78946313 143.02929688 466.31640625 C139.51723761 470.49672204 135.89385788 474.45758753 132.02929688 478.31640625 C125.61632941 485.04193852 119.85074161 491.9907054 114.35351562 499.46875 C112.10295737 502.22615666 109.80111813 504.11305072 107.02929688 506.31640625 C105.63555906 508.04010094 104.30236815 509.81426634 103.02929688 511.62890625 C101.99289063 513.08296875 101.99289063 513.08296875 100.93554688 514.56640625 C99.83278323 516.15727839 98.74221157 517.75704882 97.68554688 519.37890625 C94.6419797 523.9853863 90.98300814 527.76241671 86.02929688 530.31640625 C80.22043376 531.42055465 74.5527888 531.43088646 68.65429688 531.37890625 C67.65333984 531.37511963 66.65238281 531.37133301 65.62109375 531.36743164 C61.37657358 531.35129403 57.13215352 531.3236055 52.88769531 531.29589844 C39.55093309 531.21648807 26.28366391 531.4158174 12.96289062 532.09765625 C0.56460892 532.70023426 0.56460892 532.70023426 -4.97070312 531.31640625 C-5.65820312 529.00390625 -5.65820312 529.00390625 -5.97070312 526.31640625 C-4.84570312 524.81640625 -4.84570312 524.81640625 -2.97070312 523.31640625 C1.1170094 519.4622773 4.52532895 515.25701002 7.96679688 510.81640625 C10.02929687 508.31640625 10.02929687 508.31640625 12.41210938 505.9375 C15.98899312 502.35527763 19.17162576 498.47766667 22.39257812 494.57617188 C25.49241821 490.89259566 28.74108624 487.73996757 32.4453125 484.66723633 C34.43558592 482.96992085 36.14641137 481.11810564 37.84179688 479.12890625 C38.68677734 478.14857422 38.68677734 478.14857422 39.54882812 477.1484375 C41.18923539 475.17565707 41.18923539 475.17565707 43.02929688 472.31640625 C43.68929687 472.31640625 44.34929687 472.31640625 45.02929688 472.31640625 C45.3309375 471.30513672 45.3309375 471.30513672 45.63867188 470.2734375 C47.54089054 466.22855118 50.30082638 463.30291848 53.27929688 460.00390625 C57.34748995 455.41662952 61.25417519 450.83228221 64.85351562 445.86328125 C66.6858971 443.45257339 68.86526176 441.43011497 71.02929688 439.31640625 C76.88241839 433.09976528 76.88241839 433.09976528 82.02929688 426.31640625 C82.68929687 426.31640625 83.34929687 426.31640625 84.02929688 426.31640625 C84.25617188 425.78015625 84.48304688 425.24390625 84.71679688 424.69140625 C87.93097608 418.87527245 92.92496639 414.22183226 97.73632812 409.71875 C102.5436559 405.10724005 106.61680726 400.14100599 110.67578125 394.88208008 C117.99195091 385.4320276 125.91388954 376.51098307 133.95507812 367.67578125 C136.05493953 365.28723834 138.01424126 362.82627814 139.96679688 360.31640625 C143.55225569 355.75049263 147.53571468 351.76516617 151.69335938 347.72265625 C154.4188657 344.91511127 156.67673946 341.94545873 158.87304688 338.71484375 C159.44539063 338.02261719 159.44539063 338.02261719 160.02929688 337.31640625 C160.68929687 337.31640625 161.34929687 337.31640625 162.02929688 337.31640625 C162.02929688 336.65640625 162.02929688 335.99640625 162.02929688 335.31640625 C163.46673133 334.12731332 164.9069425 332.94137533 166.36279297 331.77490234 C169.09981005 329.37951119 171.16990996 326.5303336 173.34179688 323.62890625 C176.69633061 319.24613874 180.10585599 315.01181482 183.84179688 310.94140625 C192.54489189 301.93854459 192.54489189 301.93854459 196.02929688 290.31640625 C194.49280853 279.90669774 186.71379671 270.91433849 180.25585938 263.03515625 C175.75335968 257.53736715 171.40368474 251.91630356 167.02929688 246.31640625 C166.5982666 245.76549316 166.16723633 245.21458008 165.72314453 244.64697266 C161.02792748 238.63557616 156.47037587 232.56265009 152.09179688 226.31640625 C148.309755 220.92800522 144.23079832 215.90684532 139.92626953 210.9296875 C136.62017974 207.08413975 133.6834468 203.11213474 130.84179688 198.91796875 C127.84048885 194.6100568 124.59067527 190.4949582 121.37304688 186.34765625 C119.54275169 183.98047448 117.74291847 181.59903775 115.96679688 179.19140625 C113.65869927 176.094547 111.23625144 173.10898203 108.77929688 170.12890625 C103.71192462 163.97204896 98.86140162 157.65780841 94.02929688 151.31640625 C91.88437799 148.50320744 89.73834947 145.69085863 87.59179688 142.87890625 C87.04056152 142.15566162 86.48932617 141.43241699 85.92138672 140.68725586 C82.90830977 136.74227663 79.85883964 132.83187657 76.76049805 128.95361328 C71.84549614 122.7937135 67.3004693 116.45782131 62.87695312 109.93652344 C58.13693632 102.95968314 52.96000137 96.44360965 47.59179688 89.94140625 C42.63516772 83.9018161 38.09339256 77.61387423 33.55908203 71.25439453 C26.23515994 60.99644459 18.77204244 51.05308854 10.59179688 41.45703125 C7.41905974 37.64635079 4.61728278 33.58921108 1.77929688 29.52734375 C-0.30204592 26.57443867 -2.42391427 23.7420105 -4.78320312 21.00390625 C-6.97070312 18.31640625 -6.97070312 18.31640625 -6.97070312 16.31640625 C-7.96070312 15.98640625 -8.95070313 15.65640625 -9.97070312 15.31640625 C-11.57617188 13.64453125 -11.57617188 13.64453125 -13.15820312 11.56640625 C-13.68800781 10.8909375 -14.2178125 10.21546875 -14.76367188 9.51953125 C-16.18502926 6.92520903 -16.19998436 5.23082552 -15.97070312 2.31640625 C-10.19122005 -0.57333529 -6.38172888 -0.5428801 0 0 Z M114.59179688 56.56640625 C113.89376953 56.59275146 113.19574219 56.61909668 112.4765625 56.64624023 C108.5368051 56.87191082 108.5368051 56.87191082 105.19335938 58.7890625 C104.80921875 59.29308594 104.42507812 59.79710937 104.02929688 60.31640625 C101.84179688 61.50390625 101.84179688 61.50390625 100.02929688 62.31640625 C102.89904908 71.97695821 109.19719439 79.52202709 115.77929688 86.94140625 C121.04698435 92.87978516 125.41375649 99.18451144 129.73046875 105.83642578 C133.78120316 112.04728502 138.21064924 117.67506268 143.02929688 123.31640625 C147.81318936 129.148199 152.37186649 135.09827538 156.77929688 141.21875 C159.41040039 144.84108522 162.08966634 148.42492758 164.77929688 152.00390625 C165.53799072 153.01348389 165.53799072 153.01348389 166.31201172 154.04345703 C167.35396861 155.42934814 168.39612603 156.81508852 169.43847656 158.20068359 C172.09719934 161.73667064 174.75048342 165.27673414 177.40429688 168.81640625 C178.80969825 170.69035415 180.2151715 172.56424795 181.62084961 174.43798828 C182.59754272 175.74058436 183.5735711 177.04367902 184.54907227 178.34716797 C191.09635119 187.09141578 197.7703055 195.73511438 204.52929688 204.31640625 C208.19232454 208.96982729 211.84445241 213.6312182 215.46679688 218.31640625 C216.24925781 219.32703125 217.03171875 220.33765625 217.83789062 221.37890625 C219.3922535 223.46247289 220.80263979 225.50527134 222.18945312 227.69140625 C222.79660156 228.55765625 223.40375 229.42390625 224.02929688 230.31640625 C224.68929687 230.31640625 225.34929687 230.31640625 226.02929688 230.31640625 C226.24457031 230.99574219 226.45984375 231.67507813 226.68164062 232.375 C228.44420789 236.22199464 230.90131904 239.13851023 233.59179688 242.37890625 C234.68692796 243.7228341 235.78066542 245.06789872 236.87304688 246.4140625 C237.411875 247.07680176 237.95070313 247.73954102 238.50585938 248.42236328 C243.07446964 254.10237585 247.35297265 260.01059647 251.64257812 265.90234375 C258.54681416 275.37997685 265.62576932 284.69577346 273.04101562 293.78125 C277.39972795 299.12684059 281.45521895 304.6463057 285.46679688 310.25390625 C289.6846991 316.14707611 294.00840355 321.86308524 298.65820312 327.42578125 C306.34887592 336.80156028 313.57209443 346.56018401 320.55224609 356.47290039 C323.70997048 360.93512946 327.0606934 365.20566883 330.53320312 369.42578125 C332.02929688 371.31640625 332.02929688 371.31640625 333.02929688 373.31640625 C333.68929687 373.31640625 334.34929687 373.31640625 335.02929688 373.31640625 C335.27679688 373.85265625 335.52429688 374.38890625 335.77929688 374.94140625 C339.2326995 381.50287124 343.96914051 387.26604246 348.46679688 393.12890625 C349.17255859 394.0516333 349.87832031 394.97436035 350.60546875 395.92504883 C352.05056559 397.81417801 353.49636509 399.7027699 354.94287109 401.59082031 C356.86216232 404.09807134 358.77695055 406.60866266 360.68945312 409.12109375 C365.76896582 415.78973181 370.87988634 422.41875763 376.14648438 428.94140625 C379.0664441 432.62467494 381.86080474 436.39987714 384.66992188 440.16796875 C387.96478071 444.56475057 391.31409909 448.9183213 394.67382812 453.265625 C396.13584926 455.1592212 397.59260506 457.05691041 399.04101562 458.9609375 C405.81804425 468.10069001 405.81804425 468.10069001 416.02929688 472.31640625 C420.48363138 472.71876886 424.93476831 472.87059602 429.40429688 473.00390625 C430.58507812 473.05095703 431.76585937 473.09800781 432.98242188 473.14648438 C439.45938161 473.3664702 445.61186454 473.23023762 452.02929688 472.31640625 C451.48792248 468.48853168 450.55213295 466.26439175 448.11523438 463.27734375 C447.52250732 462.53750244 446.92978027 461.79766113 446.3190918 461.03540039 C445.68720947 460.26188232 445.05532715 459.48836426 444.40429688 458.69140625 C439.78166447 452.90890702 435.51053142 447.15377089 431.66210938 440.8203125 C429.16628276 436.99298029 426.22466401 433.57068932 423.29101562 430.07421875 C420.34864606 426.48645896 417.65994995 422.74176403 414.95117188 418.9765625 C413.04568555 416.33909057 411.11889097 413.72265755 409.15429688 411.12890625 C408.6 410.39285156 408.04570312 409.65679688 407.47460938 408.8984375 C406.99765625 408.37636719 406.52070313 407.85429688 406.02929688 407.31640625 C405.36929687 407.31640625 404.70929688 407.31640625 404.02929688 407.31640625 C403.77535156 406.5996875 403.52140625 405.88296875 403.25976562 405.14453125 C401.9327484 402.09449801 400.32600611 399.73280923 398.34179688 397.06640625 C397.37693359 395.75929688 397.37693359 395.75929688 396.39257812 394.42578125 C392.21594389 388.93057323 387.95521805 383.50091215 383.70507812 378.0625 C376.50314502 368.84190741 369.4008143 359.55561427 362.4128418 350.171875 C359.95908894 346.88115297 357.49344468 343.59934691 355.02929688 340.31640625 C353.59277735 338.4012823 352.15650977 336.48597098 350.72070312 334.5703125 C349.4592986 332.88941085 348.1959669 331.20995509 346.93164062 329.53125 C343.29566192 324.69783063 339.68421965 319.85291765 336.15429688 314.94140625 C333.12477212 310.7563513 329.98564805 306.67834817 326.77929688 302.62890625 C319.27989673 293.15591069 312.02341956 283.49867166 304.96679688 273.69140625 C300.9501909 268.13060092 296.7070171 262.75779112 292.44726562 257.3828125 C291.03312477 255.58943516 289.64607011 253.77284094 288.33007812 251.90625 C287.90082031 251.38160156 287.4715625 250.85695313 287.02929688 250.31640625 C286.36929688 250.31640625 285.70929688 250.31640625 285.02929688 250.31640625 C284.78824219 249.62160156 284.5471875 248.92679688 284.29882812 248.2109375 C282.81691753 244.83218135 280.87415136 241.97222932 278.71679688 239.00390625 C278.28165771 238.39853027 277.84651855 237.7931543 277.39819336 237.16943359 C273.96219999 232.45194664 270.31102354 227.93701115 266.59179688 223.44140625 C261.17755298 216.89618343 256.32538508 210.09911062 251.57617188 203.0625 C245.81675738 194.5381335 239.50981178 186.50970807 232.74609375 178.7668457 C230.70139132 176.40593289 228.92180389 174.13386631 227.33398438 171.4375 C226.9034375 170.73753906 226.47289062 170.03757812 226.02929688 169.31640625 C225.36929688 169.31640625 224.70929688 169.31640625 224.02929688 169.31640625 C223.79210937 168.61515625 223.55492187 167.91390625 223.31054688 167.19140625 C221.79360228 163.78753058 219.83962387 161.2408708 217.52929688 158.31640625 C216.62554565 157.16284298 215.7219029 156.00919472 214.81835938 154.85546875 C214.12468262 153.97616699 214.12468262 153.97616699 213.41699219 153.07910156 C211.22729616 150.2976791 209.06407259 147.49609167 206.90429688 144.69140625 C206.48728516 144.15064453 206.07027344 143.60988281 205.640625 143.05273438 C203.04823825 139.67896889 200.51922125 136.26630147 198.02929688 132.81640625 C193.9591424 127.17830803 189.71988339 121.67653657 185.46679688 116.17626953 C171.33804306 97.89623444 171.33804306 97.89623444 165.56835938 89.51171875 C161.30055064 83.4241337 156.60243277 77.7214311 151.66210938 72.171875 C150.15603604 70.46042803 148.71262945 68.7137606 147.27929688 66.94140625 C145.11766522 64.17978001 145.11766522 64.17978001 142.02929688 62.31640625 C141.03929687 62.31640625 140.04929688 62.31640625 139.02929688 62.31640625 C139.02929688 61.65640625 139.02929688 60.99640625 139.02929688 60.31640625 C137.04929688 59.98640625 135.06929687 59.65640625 133.02929688 59.31640625 C133.02929688 58.65640625 133.02929688 57.99640625 133.02929688 57.31640625 C126.85189283 56.35118687 120.81830559 56.25155903 114.59179688 56.56640625 Z " fill="#FADEAD" transform="translate(98.970703125,105.68359375)"/>
<path d="" fill="#FADEAD" transform="translate(0,0)"/>
</svg>
