<?xml version="1.0" encoding="UTF-8"?>
<svg version="1.1" xmlns="http://www.w3.org/2000/svg" width="360" height="360">
<path d="M0 0 C1.08192627 0.12600586 2.16385254 0.25201172 3.27856445 0.38183594 C8.91597919 1.11609605 8.91597919 1.11609605 10.9375 1.625 C12.64705668 5.04411336 12.07896246 8.95735095 12.0703125 12.71875 C12.07126923 13.6212146 12.07222595 14.5236792 12.07321167 15.45349121 C12.07389279 17.36336334 12.07204321 19.27323778 12.06787109 21.18310547 C12.06252189 24.11300843 12.06781837 27.04275808 12.07421875 29.97265625 C12.07355796 31.82552117 12.07227677 33.678386 12.0703125 35.53125 C12.07233673 36.41147827 12.07436096 37.29170654 12.07644653 38.1986084 C12.0524583 44.3950834 12.0524583 44.3950834 10.9375 46.625 C10.11137207 46.63958252 9.28524414 46.65416504 8.43408203 46.66918945 C5.3212506 46.73083615 2.20902679 46.80509206 -0.90332031 46.88745117 C-2.89366913 46.93642159 -4.88434881 46.97129946 -6.875 47.00585938 C-17.56225833 47.30272766 -26.48324423 48.12511646 -34.4375 55.7265625 C-40.03372484 62.26445979 -40.2134778 70.4463179 -40.37890625 78.64453125 C-40.39755737 79.40616577 -40.4162085 80.16780029 -40.4354248 80.95251465 C-40.50340336 83.7807321 -40.56375506 86.60912872 -40.625 89.4375 C-40.769375 95.769375 -40.91375 102.10125 -41.0625 108.625 C-24.5625 108.625 -8.0625 108.625 8.9375 108.625 C8.32226838 116.00777938 7.67031312 123.21415408 6.5625 130.51171875 C6.43311035 131.3802095 6.3037207 132.24870026 6.17041016 133.14350891 C5.90003767 134.95102356 5.62773186 136.75825004 5.35351562 138.56518555 C4.93272785 141.34401465 4.52072099 144.12405613 4.109375 146.90429688 C3.84426893 148.66934885 3.57866285 150.43432582 3.3125 152.19921875 C3.18955566 153.03136398 3.06661133 153.86350922 2.93994141 154.72087097 C2.0524327 160.5100673 2.0524327 160.5100673 0.9375 161.625 C-12.9225 161.625 -26.7825 161.625 -41.0625 161.625 C-41.0625 203.535 -41.0625 245.445 -41.0625 288.625 C-59.5425 288.625 -78.0225 288.625 -97.0625 288.625 C-97.90755283 285.24478867 -98.18623871 282.88893912 -98.18275452 279.47442627 C-98.18412918 278.43398666 -98.18550385 277.39354706 -98.18692017 276.32157898 C-98.18152725 274.61793938 -98.18152725 274.61793938 -98.17602539 272.87988281 C-98.17617142 271.67960953 -98.17631744 270.47933624 -98.1764679 269.24269104 C-98.17589084 265.95582561 -98.17087745 262.66900282 -98.16389394 259.38214588 C-98.1576403 255.94550067 -98.15705501 252.50885461 -98.15586853 249.07220459 C-98.15276115 242.56641654 -98.14455574 236.0606453 -98.13451904 229.55486465 C-98.1233395 222.14741818 -98.11784281 214.73997091 -98.11282361 207.3325181 C-98.10237264 192.09666734 -98.08403452 176.86083974 -98.0625 161.625 C-112.9125 161.625 -127.7625 161.625 -143.0625 161.625 C-143.0625 144.135 -143.0625 126.645 -143.0625 108.625 C-128.2125 108.625 -113.3625 108.625 -98.0625 108.625 C-98.14087036 95.98757876 -98.14087036 95.98757876 -98.24267578 83.3503418 C-98.29000059 74.60927221 -98.08478423 65.96587038 -97.19140625 57.265625 C-97.11499908 56.50976608 -97.03859192 55.75390717 -96.95986938 54.97514343 C-95.01588514 38.05765195 -87.35826626 22.42894687 -74.0625 11.625 C-51.92272747 -3.70049524 -25.83211688 -3.06052589 0 0 Z " fill="#FAEADE" transform="translate(246.0625,36.375)"/>
</svg>
